<svg width="20px" height="20px" viewBox="0 0 18 18" version="1.1" xmlns="http://www.w3.org/2000/svg" xmlns:xlink="http://www.w3.org/1999/xlink">
    <g id="Symbols" stroke="none" stroke-width="1" fill="none" fill-rule="evenodd">
        <g id="nav-bar/sy" transform="translate(-334.000000, -8.000000)" fill="#2E66E7" fill-rule="nonzero">
            <g id="nav-bar" transform="translate(0.000000, 0.041489)">
                <g id="Nav-/-KalendarzDodaj" transform="translate(334.000000, 7.958511)">
                    <path d="M7.32905094,14.6581019 C3.2897127,14.6581019 0,11.3683892 0,7.32905094 C0,3.28971273 3.28971273,0 7.32905094,0 C11.3683892,0 14.6581019,3.2897127 14.6581019,7.32905094 C14.6581019,8.96180081 14.1172794,10.5151653 13.1400189,11.7854466 L17.2054701,15.8509682 C17.4557074,16.0912204 17.5565098,16.4479833 17.4690009,16.7836648 C17.381492,17.1193462 17.1193462,17.381492 16.7836648,17.4690009 C16.4479833,17.5565098 16.0912204,17.4557074 15.8545296,17.2091047 L11.7854451,13.1400201 C10.5151641,14.1172799 8.96180015,14.6581019 7.32905094,14.6581019 Z M7.32905094,1.91581019 C4.33101577,1.91581019 1.91581019,4.33101577 1.91581019,7.32905094 C1.91581019,10.3270863 4.33101567,12.7422917 7.32905094,12.7422917 C10.3270864,12.7422917 12.7422917,10.3270864 12.7422917,7.32905094 C12.7422917,4.33101567 10.3270863,1.91581019 7.32905094,1.91581019 Z" id="Shape"></path>
                </g>
            </g>
        </g>
    </g>
</svg>